<?xml version="1.0" encoding="UTF-8" standalone="no"?>
<svg
   xmlns:dc="http://purl.org/dc/elements/1.1/"
   xmlns:cc="http://creativecommons.org/ns#"
   xmlns:rdf="http://www.w3.org/1999/02/22-rdf-syntax-ns#"
   xmlns:svg="http://www.w3.org/2000/svg"
   xmlns="http://www.w3.org/2000/svg"
   xmlns:sodipodi="http://sodipodi.sourceforge.net/DTD/sodipodi-0.dtd"
   xmlns:inkscape="http://www.inkscape.org/namespaces/inkscape"
   width="113.01246mm"
   height="140.03075mm"
   viewBox="0 0 113.01246 140.03075"
   version="1.1"
   id="svg8"
   inkscape:version="1.0.2 (e86c870879, 2021-01-15, custom)"
   sodipodi:docname="cuttlery.svg">
  <defs
     id="defs2">
    <clipPath
       clipPathUnits="userSpaceOnUse"
       id="clipPath35">
      <rect
         style="fill:#b3b3b3;stroke-width:2.80093;stroke-linecap:round;stroke-linejoin:round;paint-order:fill markers stroke"
         id="rect37"
         width="861.3631"
         height="1047.8218"
         x="-34.920765"
         y="-50.211662" />
    </clipPath>
  </defs>
  <sodipodi:namedview
     id="base"
     pagecolor="#ffffff"
     bordercolor="#666666"
     borderopacity="1.0"
     inkscape:pageopacity="0.0"
     inkscape:pageshadow="2"
     inkscape:zoom="0.48188921"
     inkscape:cx="972.8452"
     inkscape:cy="-54.581187"
     inkscape:document-units="mm"
     inkscape:current-layer="layer1"
     inkscape:document-rotation="0"
     showgrid="false"
     fit-margin-top="0"
     fit-margin-left="0"
     fit-margin-right="0"
     fit-margin-bottom="0"
     inkscape:window-width="1920"
     inkscape:window-height="1017"
     inkscape:window-x="-8"
     inkscape:window-y="-8"
     inkscape:window-maximized="1" />
  <metadata
     id="metadata5">
    <rdf:RDF>
      <cc:Work
         rdf:about="">
        <dc:format>image/svg+xml</dc:format>
        <dc:type
           rdf:resource="http://purl.org/dc/dcmitype/StillImage" />
        <dc:title></dc:title>
      </cc:Work>
    </rdf:RDF>
  </metadata>
  <g
     inkscape:label="Calque 1"
     inkscape:groupmode="layer"
     id="layer1"
     transform="translate(-16.223767,-114.1511)">
    <g
       id="g27"
       transform="matrix(0.14046942,0,0,0.14115831,16.215536,113.36089)"
       clip-path="url(#clipPath35)">
      <path
         d="m 290.135,30.526 -3.05,-6.404 C 282.047,12.91 274.916,8.509 269.826,6.801 263.493,4.662 256.328,5.408 250.675,8.78 c -7.449,4.458 -11.021,8.701 -11.563,28.32 -0.52,18.804 1.542,52.192 5.655,118.72 l 3.815,62.331 c 0.797,13.204 2.146,30.956 3.708,51.502 3.975,52.362 9.438,124.083 8.948,167.361 l -6.652,88.738 c -3.072,42.53 -6.259,86.509 -9.958,130.057 v 0 c -10.595,124.639 -13.337,241.65 -14.017,286.185 0,0 -0.022,1.595 -0.033,1.685 -0.33,27.336 20.289,49.862 46.125,50.213 25.675,0.351 46.825,-21.599 47.165,-49.023 l 0.095,-6.947 c 0.511,-32.404 0.734,-62.852 0.734,-91.205 0,-82.074 -1.829,-146.645 -3.625,-190.34 -1.849,-45.054 -3.071,-83.918 -4.241,-121.493 l -2.55,-76.97 c 0.968,-29.813 9.193,-36.715 25.592,-50.473 l 5.005,-4.22 c 11.755,-10.036 15.878,-27.166 15.878,-50.032 0,-19.098 -2.88,-42.202 -6.599,-68.508 C 329.647,111.525 301.963,54.761 290.135,30.526 Z M 133.03,20.773 132.85,16.801 c -0.254,-5.68 -3.56,-9.063 -8.831,-9.063 h -1.36 c -4.475,0 -8.12,3.881 -8.12,8.633 0,-0.034 -3.283,158.886 -3.283,158.886 0,0.803 -0.819,1.606 -2.009,1.606 h -3.613 c -1.18,0 -2.009,-0.803 -2.009,-1.527 0,-0.091 -3.624,-159.045 -3.624,-159.045 0,-4.673 -3.635,-8.554 -8.11,-8.554 h -1.359 c -4.475,0 -8.109,3.881 -8.109,8.633 0,-0.045 -3.497,158.875 -3.497,158.875 0,0.895 -0.935,1.607 -1.998,1.618 h -3.625 c -1.116,-0.011 -2.051,-0.724 -2.051,-1.527 0,-0.08 -3.486,-159.045 -3.486,-159.045 0,-4.684 -3.633,-8.554 -8.108,-8.554 h -1.361 c -4.473,0 -8.108,3.881 -8.108,8.645 0,-0.046 -3.624,158.875 -3.624,158.875 0,0.814 -0.829,1.618 -2.008,1.618 h -3.603 c -1.074,0 -2.009,-0.712 -2.009,-1.528 0,-0.079 -3.284,-159.033 -3.284,-159.033 0,-4.684 -3.635,-8.564 -8.12,-8.564 h -1.36 c -5.271,0 -8.577,3.394 -8.832,9.074 l -0.213,4.672 C 14.236,86.995 9.039,201.631 6.753,233.525 l -0.01,0.136 v 0.136 c 0,75.454 8.449,85.434 21.245,100.538 l 4.623,5.59 3.645,4.537 c 11.893,14.743 17.865,22.142 18.099,54.139 L 50.89,492.76 c -1.594,45.415 -3.231,92.369 -5.271,138.882 -4.697,107.057 -12.922,209.462 -17.354,264.482 -1.934,24.021 -3.104,38.525 -3.114,42.485 0,29.361 22.361,53.154 49.833,53.154 27.652,0 50.013,-23.806 50.013,-53.053 -0.021,-4.072 -1.189,-18.588 -3.124,-42.654 -4.421,-55.01 -12.647,-157.394 -17.344,-264.415 -2.041,-46.467 -3.678,-93.376 -5.262,-138.747 L 95.793,398.408 C 96.026,366.581 102,359.182 113.902,344.44 l 3.676,-4.526 4.624,-5.59 c 12.795,-15.104 21.245,-25.083 21.245,-100.538 v -0.136 l -0.012,-0.135 C 141.043,200.15 135.357,73.622 133.03,20.773 Z m 430.17,312.84 c 27.059,-31.691 47.602,-77.978 47.441,-138.826 -0.243,-93.853 -45.847,-169.793 -101.875,-169.635 -56.029,0.159 -101.237,76.371 -101.014,170.224 0.158,60.848 20.903,107.033 48.154,138.554 9.798,11.325 17.28,20.411 23.136,27.72 8.682,11.359 13.305,21.305 13.582,49.025 -2.573,67.297 -4.729,149.891 -8.013,229.714 -6.186,149.812 -19.352,289.486 -19.375,302.215 0,0.011 0,0.057 0,0.078 0.064,26.929 20.628,48.698 45.922,48.63 0.031,0 0.043,0 0.074,0 0.032,0 0.053,0 0.085,0 25.294,-0.068 45.73,-21.961 45.656,-48.89 v -0.078 c -0.085,-12.729 -13.966,-152.324 -20.915,-302.103 -3.699,-79.8 -6.281,-162.395 -9.183,-229.669 0.127,-26.928 4.453,-37.11 12.593,-48.119 5.91,-7.501 13.572,-16.938 23.732,-28.84 z m 195.34,190.63 c 26.266,-22.506 46.204,-55.376 46.052,-98.589 -0.238,-66.651 -44.505,-120.582 -98.891,-120.469 -54.389,0.112 -98.273,54.236 -98.057,120.887 0.153,43.211 20.291,76.011 46.742,98.396 9.513,8.042 16.774,14.495 22.459,19.685 8.428,8.067 12.916,15.131 13.184,34.816 -2.496,47.792 -4.59,106.448 -7.779,163.134 -6.003,106.392 -18.784,205.584 -18.806,214.623 0,0.007 0,0.04 0,0.056 0.063,19.123 20.022,34.583 44.575,34.535 0.032,0 0.042,0 0.073,0 0.031,0 0.052,0 0.083,0 24.553,-0.049 44.392,-15.596 44.318,-34.719 v -0.057 c -0.083,-9.04 -13.557,-108.175 -20.302,-214.543 -3.592,-56.67 -6.099,-115.326 -8.913,-163.103 0.121,-19.123 4.322,-26.354 12.224,-34.172 5.737,-5.326 13.173,-12.027 23.038,-20.48 z"
         id="path10" />
      <text
         x="0"
         y="1015"
         fill="#000000"
         font-size="5px"
         font-weight="bold"
         font-family="'Helvetica Neue', Helvetica, Arial-Unicode, Arial, Sans-serif"
         id="text12">Created by Optimus Prime</text>
      <text
         x="0"
         y="1020"
         fill="#000000"
         font-size="5px"
         font-weight="bold"
         font-family="'Helvetica Neue', Helvetica, Arial-Unicode, Arial, Sans-serif"
         id="text14">from the Noun Project</text>
    </g>
  </g>
</svg>
